<?xml version="1.0" standalone="no"?><!DOCTYPE svg PUBLIC "-//W3C//DTD SVG 1.1//EN" "http://www.w3.org/Graphics/SVG/1.1/DTD/svg11.dtd"><svg t="1565184936565" class="icon" viewBox="0 0 1024 1024" version="1.1" xmlns="http://www.w3.org/2000/svg" p-id="4259" xmlns:xlink="http://www.w3.org/1999/xlink" width="200" height="200"><defs><style type="text/css"></style></defs><path d="M813.378513 293.592688 596.64533 510.324848 813.378513 727.058031c23.917736 23.917736 23.939225 62.757323 0.002047 86.695524-23.938202 23.938202-62.777789 23.916712-86.696548-0.001023L509.950829 597.019349 293.217646 813.752532c-23.938202 23.938202-62.774719 23.917736-86.692455 0-23.958668-23.957645-23.938202-62.755276 0-86.693478L423.257352 510.325871 206.525192 293.593711c-23.960715-23.960715-23.937179-62.757323 0-86.694501 23.937179-23.937179 62.732763-23.960715 86.693478 0l216.73216 216.73216L726.684012 206.89921c23.938202-23.938202 62.73788-23.959691 86.695524-0.001023C837.297272 230.815923 837.315692 269.654486 813.378513 293.592688z" p-id="4260"></path></svg>